Coordinates
version=1
nRows=13
nColumns=22
inDegrees=yes

Units are S.I. units (second, meters, Newtons, ...)
If the header above contains a line with 'inDegrees', this indicates whether rotational values are in degrees (yes) or radians (no).

endheader
time	pelvis_tilt	pelvis_list	pelvis_rotation	pelvis_tx	pelvis_ty	pelvis_tz	hip_flexion_r	hip_adduction_r	hip_rotation_r	knee_angle_r	ankle_angle_r	subtalar_angle_r	hip_flexion_l	hip_adduction_l	hip_rotation_l	knee_angle_l	ankle_angle_l	subtalar_angle_l	lumbar_extension	lumbar_bending	lumbar_rotation
      0.98000000	     -1.89758499	     -2.04344758	     -0.20334410	     -0.86312842	      0.88286762	     -0.14348539	     29.43343190	      2.54555302	    -20.80408833	    -17.85223091	     -0.14489873	     -2.59365206	    -17.78192859	     -1.16379258	     -7.46906881	    -12.98414886	     16.06979932	      3.77894253	     -9.71015174	     -1.08368846	    -15.91527767
      0.99000000	     -2.01633365	     -2.24360920	     -0.35894589	     -0.85316063	      0.88265181	     -0.14144138	     29.62068036	      2.89499529	    -20.33335818	    -19.04267534	     -0.56442106	     -3.88733006	    -18.06760954	     -1.52879847	     -7.41241933	    -13.43808170	     15.12389239	      4.37907350	     -9.49209235	     -0.79104421	    -15.84119229
      1.00000000	     -2.14527677	     -2.44432802	     -0.55185154	     -0.84298637	      0.88272110	     -0.13929220	     29.81956875	      3.27002404	    -19.74573594	    -20.24869728	     -0.97055629	     -5.02729351	    -18.27433087	     -1.89837948	     -7.33378933	    -14.01855477	     13.99930550	      5.02661200	     -9.24969718	     -0.50186088	    -15.75857360
      1.01000000	     -2.26696389	     -2.62006973	     -0.78563600	     -0.83261285	      0.88309446	     -0.13706125	     29.99800615	      3.64316449	    -19.05374773	    -21.46236348	     -1.32881803	     -5.92967595	    -18.40730582	     -2.24052148	     -7.21181765	    -14.74192065	     12.68688186	      5.70312077	     -9.00064511	     -0.24354339	    -15.65444406
      1.02000000	     -2.37127491	     -2.76352443	     -1.04882057	     -0.82202181	      0.88376086	     -0.13478861	     30.12331577	      3.99396207	    -18.33286593	    -22.66293554	     -1.60839441	     -6.59793945	    -18.46948140	     -2.54582323	     -7.01923967	    -15.61382630	     11.18408334	      6.40834174	     -8.74840221	     -0.02202909	    -15.53290602
      1.03000000	     -2.43395981	     -2.84863520	     -1.34957959	     -0.81126018	      0.88473807	     -0.13246309	     30.14406378	      4.30644570	    -17.57452309	    -23.80095635	     -1.80056582	     -7.02057004	    -18.46776160	     -2.78208135	     -6.75236956	    -16.65288960	      9.47006986	      7.08901366	     -8.52341777	      0.13100818	    -15.39049649
      1.04000000	     -2.47554589	     -2.89992812	     -1.64449315	     -0.80034507	      0.88595212	     -0.13012205	     30.06077833	      4.57785548	    -16.91009143	    -24.84578027	     -1.84098627	     -7.33124328	    -18.35165845	     -2.99099442	     -6.37670579	    -17.89363657	      7.56441731	      7.87633019	     -8.29476366	      0.24217466	    -15.23787397
      1.05000000	     -2.45368963	     -2.87513403	     -1.94996571	     -0.78939123	      0.88744536	     -0.12774227	     29.81126179	      4.79382465	    -16.23292868	    -25.74248392	     -1.77498853	     -7.50977246	    -18.15035275	     -3.11263069	     -5.86222222	    -19.33501765	      5.46537004	      8.60857838	     -8.12571787	      0.25914177	    -15.07747568
      1.06000000	     -2.40034448	     -2.80268978	     -2.23452082	     -0.77843953	      0.88911032	     -0.12535384	     29.43166256	      4.95957250	    -15.64061915	    -26.49402871	     -1.54872544	     -7.64424990	    -17.80340979	     -3.18807238	     -5.21077119	    -21.00910931	      3.20504331	      9.39568239	     -7.97700460	      0.21511550	    -14.91039592
      1.07000000	     -2.32808771	     -2.69388671	     -2.49069624	     -0.76756160	      0.89086837	     -0.12295753	     28.94100793	      5.08683969	    -15.13081222	    -27.09842429	     -1.14493573	     -7.78410128	    -17.27529558	     -3.23110500	     -4.45018042	    -22.94201498	      0.84112507	     10.28270967	     -7.84008587	      0.12145035	    -14.72599458
      1.08000000	     -2.19892807	     -2.49377478	     -2.72303908	     -0.75686042	      0.89274941	     -0.12058478	     28.32134068	      5.12386177	    -14.63995440	    -27.57450471	     -0.64242729	     -7.93721937	    -16.60752133	     -3.16282831	     -3.55756228	    -25.09569847	     -1.62686431	     11.07686373	     -7.77364702	     -0.08798618	    -14.53400446
      1.09000000	     -2.06174463	     -2.25775836	     -2.92492297	     -0.74636199	      0.89460712	     -0.11824480	     27.63646851	      5.11535540	    -14.22386761	    -27.93928029	     -0.00978161	     -8.14549899	    -15.73424270	     -3.05422711	     -2.63562647	    -27.50881927	     -4.08565868	     11.91615280	     -7.72125050	     -0.34335570	    -14.31503264
      1.10000000	     -1.91466111	     -1.99198835	     -3.10211658	     -0.73611860	      0.89641314	     -0.11594173	     26.89782895	      5.06883827	    -13.86710678	    -28.20249319	      0.71076200	     -8.41391171	    -14.66549716	     -2.91112133	     -1.75022203	    -30.16581092	     -6.47985878	     12.71946586	     -7.69536746	     -0.63853014	    -14.07128140
